<?xml version="1.0" standalone="no"?>
<!DOCTYPE svg PUBLIC "-//W3C//DTD SVG 20010904//EN"
 "http://www.w3.org/TR/2001/REC-SVG-20010904/DTD/svg10.dtd">
<svg version="1.0" xmlns="http://www.w3.org/2000/svg"
 width="320.000000pt" height="320.000000pt" viewBox="0 0 320.000000 320.000000"
 preserveAspectRatio="xMidYMid meet">
<metadata>
Created by potrace 1.11, written by Peter Selinger 2001-2013
</metadata>
<g transform="translate(0.000000,320.000000) scale(0.100000,-0.100000)"
fill="#000000" stroke="none">
<path d="M0 1955 l0 -1245 49 0 50 0 3 48 3 47 45 0 45 0 3 -52 3 -53 -50 0
-51 0 0 -50 0 -50 -50 0 -50 0 0 -300 0 -300 499 0 498 0 5 72 c3 39 3 129 0
200 l-5 128 -48 0 -49 0 0 250 0 250 50 0 50 0 0 50 0 50 50 0 50 0 0 -50 0
-50 50 0 50 0 0 -50 0 -50 50 0 50 0 0 -50 0 -50 50 0 50 0 0 -50 0 -50 200 0
200 0 0 50 0 50 50 0 50 0 0 50 0 50 50 0 50 0 0 50 0 50 50 0 50 0 0 50 0 50
50 0 50 0 0 -50 0 -50 50 0 50 0 0 -250 0 -250 -49 0 -48 0 -5 -128 c-3 -71
-3 -161 0 -200 l5 -72 498 0 499 0 0 300 0 300 -50 0 -50 0 0 50 0 50 -51 0
-50 0 3 52 3 53 45 0 45 0 3 -47 3 -48 50 0 49 0 0 1245 0 1245 -1600 0 -1600
0 0 -1245z m2100 1095 l0 -50 50 0 50 0 0 -50 0 -50 50 0 50 0 0 -50 0 -50 50
0 50 0 0 -350 0 -350 50 0 50 0 0 -50 0 -50 50 0 50 0 0 -150 0 -150 -50 0
-50 0 0 -50 0 -50 -50 0 -50 0 0 -200 0 -200 -50 0 -50 0 0 -100 0 -100 100 0
100 0 0 -45 0 -45 248 -2 247 -3 3 -52 3 -53 -250 0 -251 0 0 50 0 50 -100 0
-100 0 0 50 0 50 -50 0 -50 0 0 100 0 100 50 0 50 0 0 200 0 200 50 0 50 0 0
50 0 50 -50 0 -50 0 0 150 0 150 50 0 50 0 0 50 0 50 -50 0 -50 0 0 350 0 350
-50 0 -50 0 0 50 0 50 -50 0 -50 0 0 50 0 50 -450 0 -450 0 0 -50 0 -50 -50 0
-50 0 0 -50 0 -50 -50 0 -50 0 0 -50 0 -50 -50 0 -50 0 0 -300 0 -300 -50 0
-50 0 0 -50 0 -50 50 0 50 0 0 -150 0 -150 -50 0 -50 0 0 -50 0 -50 50 0 50 0
0 -200 0 -200 50 0 50 0 0 -100 0 -100 -50 0 -50 0 0 -50 0 -50 -100 0 -100 0
0 -50 0 -50 -251 0 -250 0 3 53 3 52 248 3 247 2 0 45 0 45 100 0 100 0 0 100
0 100 -50 0 -50 0 0 200 0 200 -50 0 -50 0 0 50 0 50 -50 0 -50 0 0 150 0 150
50 0 50 0 0 50 0 50 50 0 50 0 0 300 0 300 50 0 50 0 0 50 0 50 50 0 50 0 0
50 0 50 50 0 50 0 0 50 0 50 50 0 50 0 0 50 0 50 450 0 450 0 0 -50z m-102
-502 l3 -48 50 0 49 0 0 -100 0 -100 50 0 50 0 0 -100 0 -100 -50 0 -50 0 0
-50 0 -50 50 0 50 0 0 -250 0 -250 -50 0 -50 0 0 -100 0 -100 -50 0 -50 0 0
-50 0 -50 -50 0 -50 0 0 -50 0 -50 -100 0 -100 0 0 -50 0 -50 -100 0 -100 0 0
50 0 50 -100 0 -100 0 0 50 0 50 -50 0 -50 0 0 50 0 50 -50 0 -50 0 0 100 0
100 -50 0 -50 0 0 250 0 250 50 0 50 0 0 50 0 50 -50 0 -50 0 0 50 0 50 50 0
50 0 0 50 0 50 50 0 50 0 0 50 0 50 49 0 50 0 3 48 3 47 48 3 47 3 0 43 c0 23
3 46 7 49 4 4 137 6 297 5 l291 -3 3 -47z"/>
<path d="M700 1850 l0 -150 50 0 50 0 0 150 0 150 -50 0 -50 0 0 -150z"/>
<path d="M2400 1850 l0 -150 50 0 50 0 0 150 0 150 -50 0 -50 0 0 -150z"/>
<path d="M1100 2150 l0 -50 200 0 200 0 0 50 0 50 -200 0 -200 0 0 -50z"/>
<path d="M1700 2150 l0 -50 200 0 200 0 0 50 0 50 -200 0 -200 0 0 -50z"/>
<path d="M1200 1950 l0 -50 50 0 50 0 0 50 0 50 -50 0 -50 0 0 -50z"/>
<path d="M1900 1950 l0 -50 50 0 50 0 0 50 0 50 -50 0 -50 0 0 -50z"/>
<path d="M1300 1450 l0 -50 -50 0 -50 0 0 -50 0 -50 50 0 50 0 0 50 0 50 300
0 300 0 0 -50 0 -50 50 0 50 0 0 50 0 50 -50 0 -50 0 0 50 0 50 -300 0 -300 0
0 -50z"/>
<path d="M1500 1250 l0 -50 100 0 100 0 0 50 0 50 -100 0 -100 0 0 -50z"/>
<path d="M1200 300 l0 -100 -92 -2 -93 -2 88 -3 87 -4 0 -94 0 -95 410 0 410
0 0 95 0 94 88 4 87 3 -92 2 -93 2 0 100 0 100 -50 0 -50 0 0 -50 0 -50 -50 0
-50 0 0 -50 0 -50 -200 0 -200 0 0 50 0 50 -50 0 -50 0 0 50 0 50 -50 0 -50 0
0 -100z"/>
<path d="M1038 113 c12 -2 32 -2 45 0 12 2 2 4 -23 4 -25 0 -35 -2 -22 -4z"/>
<path d="M2118 113 c12 -2 32 -2 45 0 12 2 2 4 -23 4 -25 0 -35 -2 -22 -4z"/>
<path d="M1113 50 c0 -30 2 -43 4 -28 2 16 2 40 0 55 -2 16 -4 3 -4 -27z"/>
<path d="M2083 50 c0 -30 2 -43 4 -28 2 16 2 40 0 55 -2 16 -4 3 -4 -27z"/>
</g>
</svg>
